HIERARCHY
ROOT Hips
{
	OFFSET	0.00	0.00	0.00
	CHANNELS 6 Xposition Yposition Zposition Zrotation Xrotation Yrotation
	JOINT LeftUpLeg
	{
		OFFSET	 0.126116	-0.014019	-0.065224
		CHANNELS 3 Zrotation Xrotation Yrotation
		JOINT LeftLeg
		{
			OFFSET	 0.000000	 0.000000	 0.569914
			CHANNELS 3 Zrotation Xrotation Yrotation
			JOINT LeftFoot
			{
				OFFSET	 0.000000	 0.000000	 0.544423
				CHANNELS 3 Zrotation Xrotation Yrotation
				JOINT LeftToeBase
				{
					OFFSET	 0.000000	 0.000000	 0.207117
					CHANNELS 3 Zrotation Xrotation Yrotation
					End Site
					{
						OFFSET	 0.000000	 0.000000	 0.207117
					}
				}
			}
		}
	}
	JOINT RightUpLeg
	{
		OFFSET	-0.124023	-0.008373	-0.065224
		CHANNELS 3 Zrotation Xrotation Yrotation
		JOINT RightLeg
		{
			OFFSET	 0.000000	 0.000000	 0.570047
			CHANNELS 3 Zrotation Xrotation Yrotation
			JOINT RightFoot
			{
				OFFSET	 0.000000	 0.000000	 0.544354
				CHANNELS 3 Zrotation Xrotation Yrotation
				JOINT RightToeBase
				{
					OFFSET	 0.000000	 0.000000	 0.207540
					CHANNELS 3 Zrotation Xrotation Yrotation
					End Site
					{
						OFFSET	 0.000000	 0.000000	 0.207540
					}
				}
			}
		}
	}
	JOINT Spine
	{
		OFFSET	 0.000184	-0.007763	 0.117403
		CHANNELS 3 Zrotation Xrotation Yrotation
		JOINT Spine1
		{
			OFFSET	 0.000000	 0.000000	 0.137269
			CHANNELS 3 Zrotation Xrotation Yrotation
			JOINT Spine2
			{
				OFFSET	 0.000000	 0.000000	 0.156879
				CHANNELS 3 Zrotation Xrotation Yrotation
				JOINT LeftShoulder
				{
					OFFSET	 0.080501	-0.002496	 0.160144
					CHANNELS 3 Zrotation Xrotation Yrotation
					JOINT LeftArm
					{
						OFFSET	 0.000000	 0.000000	 0.164363
						CHANNELS 3 Zrotation Xrotation Yrotation
						JOINT LeftForeArm
						{
							OFFSET	 0.000000	 0.000000	 0.364576
							CHANNELS 3 Zrotation Xrotation Yrotation
							JOINT LeftHand
							{
								OFFSET	 0.000000	 0.000000	 0.360812
								CHANNELS 3 Zrotation Xrotation Yrotation
								JOINT LeftHandIndex1
								{
									OFFSET	 0.000000	 0.000000	 0.086006
									CHANNELS 3 Zrotation Xrotation Yrotation
									JOINT LeftHandIndex2
									{
										OFFSET	 0.000000	 0.000000	 0.047236
										CHANNELS 3 Zrotation Xrotation Yrotation
										JOINT LeftHandIndex3
										{
											OFFSET	-0.004284	-0.000551	 0.038166
											CHANNELS 3 Zrotation Xrotation Yrotation
											End Site
											{
												OFFSET	-0.004284	-0.000551	 0.038166
											}
										}
									}
								}
							}
						}
					}
				}
				JOINT Neck
				{
					OFFSET	 0.000000	 0.000000	 0.176489
					CHANNELS 3 Zrotation Xrotation Yrotation
					JOINT Head
					{
						OFFSET	 0.000000	-0.001747	 0.077940
						CHANNELS 3 Zrotation Xrotation Yrotation
						End Site
						{
							OFFSET	 0.000000	-0.001747	 0.077940
						}
					}
				}
				JOINT RightShoulder
				{
					OFFSET	-0.080363	 0.000306	 0.159706
					CHANNELS 3 Zrotation Xrotation Yrotation
					JOINT RightArm
					{
						OFFSET	 0.000000	 0.000000	 0.164196
						CHANNELS 3 Zrotation Xrotation Yrotation
						JOINT RightForeArm
						{
							OFFSET	 0.000000	 0.000000	 0.365611
							CHANNELS 3 Zrotation Xrotation Yrotation
							JOINT RightHand
							{
								OFFSET	 0.000000	 0.000000	 0.360648
								CHANNELS 3 Zrotation Xrotation Yrotation
								JOINT RightHandIndex1
								{
									OFFSET	 0.000000	 0.000000	 0.069977
									CHANNELS 3 Zrotation Xrotation Yrotation
									JOINT RightHandIndex2
									{
										OFFSET	 0.000000	 0.000000	 0.052305
										CHANNELS 3 Zrotation Xrotation Yrotation
										JOINT RightHandIndex3
										{
											OFFSET	 0.009002	-0.000782	 0.042196
											CHANNELS 3 Zrotation Xrotation Yrotation
											End Site
											{
												OFFSET	 0.009002	-0.000782	 0.042196
											}
										}
									}
								}
							}
						}
					}
				}
			}
		}
	}
}
MOTION
Frames:    13
Frame Time: 0.03333334
-0.000368	 0.045375	 1.276568	-0.061148	 2.932080	 0.465314	 4.457669	-5.796366	 178.188200	 2.170398	-11.902510	 0.533894	-0.192200	 70.241650	 0.124562	-2.385833	 28.452750	 0.000004	 3.033866	-5.332199	-178.274800	-0.791758	-10.437260	 0.790327	 5.024061	 69.324280	 1.305502	 2.384659	 28.388700	-0.000001	-7.504802	 6.680796	 1.456643	-3.133579	-4.258062	-0.296980	 9.626746	 7.300683	-0.755728	-91.049380	 68.981110	-177.556800	-7.460327	 3.972246	-21.378080	 25.324060	-0.125980	-0.828964	-8.682531	-23.869820	-4.776515	-2.027600	 6.559038	 9.033609	-5.188889	 0.308190	 3.541030	-5.234859	 0.342567	 0.430617	 4.625114	 19.894390	-7.358028	 4.880964	-15.295920	 2.236196	 88.850690	 67.574040	 177.042100	 8.270172	 7.179362	 9.643548	-26.608150	-7.186417	 20.361230	 6.049330	-23.520190	 6.335952	 1.803333	 3.979147	-15.098590	 4.898592	 3.004813	-9.310344	 5.224449	 0.395017	 2.014677
-0.000555	 0.046797	 1.276713	-0.039810	 3.234841	 0.481747	 4.463299	-6.114931	 178.185000	 2.146717	-11.723230	 0.521145	-0.086547	 70.053810	 0.029021	-2.385833	 28.452750	 0.000004	 2.955981	-5.599959	-178.268800	-0.790438	-10.166440	 0.770282	 4.843740	 69.098290	 1.495635	 2.384659	 28.388700	-0.000001	-7.823073	 6.853442	 1.495935	-3.150685	-4.800013	-0.353471	 9.608267	 7.951190	-0.826214	-90.994830	 68.611030	-177.443200	-7.050554	 4.230546	-22.008870	 24.981110	-0.121247	-0.922491	-8.289760	-24.563790	-5.022010	-2.027600	 6.559038	 9.033609	-5.188889	 0.308190	 3.541030	-5.234859	 0.342567	 0.430617	 4.695644	 20.938300	-7.677581	 4.993473	-16.145640	 2.281493	 88.762610	 66.967470	 176.884200	 7.834737	 7.201076	 10.009080	-26.422830	-7.279132	 20.892650	 5.487492	-23.968650	 6.217431	 1.803333	 3.979147	-15.098590	 4.898592	 3.004813	-9.310344	 5.224449	 0.395017	 2.014677
-0.001288	 0.052370	 1.276665	 0.054118	 4.348477	 0.553955	 4.407260	-7.571512	 178.150200	 2.133933	-11.604980	 0.518424	 0.219814	 69.687250	-0.334726	-2.385833	 28.452750	 0.000004	 2.678955	-6.861134	-178.291800	-0.793830	-9.702142	 0.734879	 4.295194	 68.506880	 2.089390	 2.384659	 28.388700	-0.000001	-8.761982	 7.415093	 1.599776	-3.153070	-6.428506	-0.518547	 9.344687	 9.903698	-1.013493	-90.848810	 67.600650	-177.163200	-5.628138	 5.768265	-24.194280	 23.788030	-0.101428	-1.244608	-7.391272	-27.002720	-6.050688	-2.027600	 6.559038	 9.033609	-5.188889	 0.308190	 3.541030	-5.234859	 0.342567	 0.430617	 4.752249	 24.028060	-8.567555	 5.331691	-18.781650	 2.490228	 88.480990	 65.014860	 176.426600	 6.323613	 7.902081	 11.431350	-25.706030	-7.359847	 22.246610	 3.804697	-25.559580	 5.980886	 1.803333	 3.979147	-15.098590	 4.898592	 3.004813	-9.310344	 5.224449	 0.395017	 2.014677
-0.002086	 0.059577	 1.276584	 0.170260	 5.787635	 0.666143	 4.336266	-9.528673	 178.098900	 2.137409	-11.606390	 0.514147	 0.668596	 69.318550	-0.826603	-2.385832	 28.452790	-0.000001	 2.287888	-8.480261	-178.355000	-1.137825	-9.073754	 0.633168	 3.948566	 67.798940	 2.829633	 2.384659	 28.388700	-0.000001	-9.603653	 7.981612	 1.616510	-3.109404	-8.196182	-0.619323	 8.803170	 11.791400	-1.233789	-90.832390	 66.220340	-177.334400	-3.743788	 7.148145	-26.201800	 21.491630	-0.063556	-1.587853	-7.785085	-29.293310	-7.665119	-2.027600	 6.559038	 9.033609	-5.188889	 0.308190	 3.541030	-5.234859	 0.342567	 0.430617	 4.446150	 25.829670	-8.797896	 5.340884	-20.523090	 2.450094	 88.396750	 62.886600	 176.538800	 4.134822	 8.604856	 12.704080	-24.409130	-7.032320	 23.316580	 2.477564	-26.972700	 6.355595	 1.803333	 3.979147	-15.098590	 4.898592	 3.004813	-9.310344	 5.224449	 0.395017	 2.014677
-0.002698	 0.068812	 1.275778	 0.396727	 7.607348	 0.727584	 4.076790	-12.642490	 178.112200	 2.077830	-12.909020	 0.557584	 1.419387	 69.349850	-1.603224	-2.385832	 28.452790	-0.000001	 1.830355	-11.098900	-178.414400	-1.431647	-9.445773	 0.610459	 3.704278	 67.468570	 3.424852	 2.384659	 28.388700	-0.000001	-10.430470	 8.498623	 1.565810	-2.977016	-9.970408	-0.655435	 8.029163	 13.489020	-1.337437	-91.173450	 65.187960	-178.384200	-1.797653	 8.830264	-27.354410	 19.295680	-0.017742	-1.969751	-8.710909	-31.190480	-9.544271	-2.027600	 6.559038	 9.033609	-5.188889	 0.308190	 3.541030	-5.234859	 0.342567	 0.430617	 3.990409	 26.761250	-8.791482	 5.078968	-21.714440	 2.356328	 88.690140	 61.411850	 177.419100	 1.520976	 9.851761	 12.628130	-22.949700	-6.947143	 25.519250	 1.325254	-28.376990	 6.918019	 1.803333	 3.979147	-15.098590	 4.898592	 3.004813	-9.310344	 5.224449	 0.395017	 2.014677
-0.003011	 0.080057	 1.274621	 0.684945	 9.735304	 0.706172	 3.727446	-16.223770	 178.227000	 2.017693	-14.218660	 0.598243	 2.326956	 69.153340	-2.563854	-2.385833	 28.452760	 0.000004	 1.405761	-14.341290	-178.410800	-1.629479	-10.123430	 0.618898	 3.374661	 67.150700	 4.024446	 2.384659	 28.388700	-0.000001	-11.210420	 8.936084	 1.489755	-2.722592	-11.515960	-0.643302	 7.073121	 14.795260	-1.218856	-91.863930	 64.829760	 179.768600	-0.160826	 10.489310	-22.819440	 17.749100	-1.259982	-12.436190	-9.595929	-32.683080	-11.255590	-2.027600	 6.559038	 9.033609	-5.188889	 0.308190	 3.541030	-5.234859	 0.342567	 0.430617	 3.505745	 26.608670	-8.794606	 4.561012	-22.237840	 2.203144	 89.340660	 60.705160	 178.981400	-1.328029	 12.064150	 11.966570	-21.484730	-6.784955	 27.844790	 0.567619	-29.840120	 7.523600	 1.803333	 3.979147	-15.098590	 4.898592	 3.004813	-9.310344	 5.224449	 0.395017	 2.014677
-0.003401	 0.091713	 1.273144	 0.886108	 11.888470	 0.626330	 3.451033	-19.722680	 178.388600	 2.039655	-15.319250	 0.649290	 3.136336	 68.977600	-3.514031	-2.385832	 28.452790	-0.000001	 1.183204	-17.948800	-178.360800	-1.817230	-11.470050	 0.662719	 3.074877	 67.249360	 4.595982	 2.384659	 28.388700	-0.000001	-11.859350	 9.370748	 1.457069	-2.364516	-12.439110	-0.606571	 6.073328	 15.547510	-0.848813	-92.619420	 65.119770	 177.746900	 1.462492	 13.000030	-21.378850	 17.292100	-1.622811	-16.787400	-9.889858	-33.926210	-12.278630	-2.027600	 6.559038	 9.033609	-5.188889	 0.308190	 3.541030	-5.234859	 0.342567	 0.430617	 3.104071	 25.243650	-9.037129	 3.867193	-21.985920	 1.927338	 90.094920	 60.270760	-179.288500	-3.941287	 14.599330	 11.930060	-19.897490	-6.247813	 29.445490	 0.557768	-31.334950	 8.114945	 1.803333	 3.979147	-15.098590	 4.898592	 3.004813	-9.310344	 5.224449	 0.395017	 2.014677
-0.005353	 0.108170	 1.271336	 1.981459	 15.824960	 0.733712	 1.981686	-25.382350	 178.028300	 2.711653	-16.394000	 0.883716	 3.289613	 68.239100	-4.464867	-2.385833	 28.452760	 0.000004	-0.036953	-23.198200	-178.778400	-1.435016	-12.252510	 0.788659	 1.473677	 66.439260	 6.026932	 2.384659	 28.388700	-0.000001	-12.872380	 9.235506	 1.171464	-2.343319	-13.220250	-0.779111	 4.630231	 15.294130	-0.619135	-93.398550	 65.284810	 175.631800	 4.038316	 15.563070	-22.898800	 16.809670	-1.333473	-16.384260	-10.055940	-34.700670	-13.198860	-2.027600	 6.559038	 9.033609	-5.188889	 0.308190	 3.541030	-5.234859	 0.342567	 0.430617	 2.738136	 24.521380	-8.575333	 2.887298	-22.288510	 1.563229	 90.987540	 60.521780	-177.236200	-7.275274	 17.913310	 12.994480	-18.265090	-5.466828	 30.591590	 0.830003	-32.502670	 9.084490	 1.803333	 3.979147	-15.098590	 4.898592	 3.004813	-9.310344	 5.224449	 0.395017	 2.014677
-0.007956	 0.122754	 1.269642	 3.228060	 19.499070	 0.647807	 0.260437	-30.076520	 177.506400	 3.352887	-16.662140	 1.082234	 2.799592	 66.645780	-4.710454	-2.385833	 28.452760	 0.000004	-1.381297	-28.073350	-179.199700	-1.662721	-13.616880	 0.821085	 0.811707	 65.777480	 7.103028	 2.384659	 28.388700	-0.000001	-13.867490	 9.341693	 0.865748	-2.308949	-12.199010	-0.462159	 3.172951	 14.223850	-0.721424	-94.002070	 65.729930	 173.875800	 5.944978	 17.429850	-25.940510	 16.378420	-0.914200	-14.602770	-10.451000	-35.575940	-14.125090	-2.027600	 6.559038	 9.033609	-5.188889	 0.308190	 3.541030	-5.234859	 0.342567	 0.430617	 2.408992	 24.010530	-7.600685	 1.702879	-22.763260	 0.882045	 91.766800	 61.115560	-175.358700	-10.081500	 20.906350	 15.137440	-17.046920	-5.031722	 32.519070	 1.279930	-33.383160	 10.013820	 1.803333	 3.979147	-15.098590	 4.898592	 3.004813	-9.310344	 5.224449	 0.395017	 2.014677
-0.010965	 0.135517	 1.267157	 4.124283	 22.020940	 0.458596	-1.025555	-33.866090	 177.010400	 3.716954	-17.916650	 1.273602	 3.277483	 67.230350	-5.662753	-2.385833	 28.452750	 0.000004	-2.354980	-32.261220	-179.549400	-1.932200	-16.238140	 0.899626	 0.374229	 67.282770	 7.926648	 2.384659	 28.388700	-0.000001	-14.654840	 9.927915	 0.607086	-2.045630	-9.040609	 0.107979	 1.829845	 12.719720	-0.946808	-94.408200	 66.755040	 172.352600	 7.061572	 18.640160	-29.654820	 16.002270	-0.590689	-13.441510	-10.976210	-36.630930	-15.035210	-2.027600	 6.559038	 9.033609	-5.188889	 0.308190	 3.541030	-5.234859	 0.342567	 0.430617	 2.006107	 23.414730	-6.647791	 0.489909	-23.224270	 0.149577	 92.380230	 61.848260	-173.765900	-11.969030	 23.208870	 18.539900	-15.977940	-4.642044	 34.674760	 2.434315	-34.367790	 11.156810	 1.803333	 3.979147	-15.098590	 4.898592	 3.004813	-9.310344	 5.224449	 0.395017	 2.014677
-0.014091	 0.149713	 1.262143	 4.317472	 23.287680	 0.352378	-1.430043	-37.223320	 176.726800	 3.768105	-20.465930	 1.465453	 3.901034	 67.850710	-6.406380	-2.385833	 28.452750	 0.000004	-2.533341	-35.961890	-179.744000	-1.989097	-19.564610	 1.058195	 0.079973	 68.173560	 8.431529	 2.384659	 28.388700	-0.000001	-15.099230	 10.778330	 0.357374	-1.444965	-4.680713	 0.503642	 0.652965	 11.301820	-0.971584	-94.573340	 68.454860	 170.962400	 7.546564	 19.514630	-34.433510	 15.604800	-0.216609	-11.645260	-11.696630	-37.945050	-15.941110	-2.027600	 6.559038	 9.033609	-5.188889	 0.308190	 3.541030	-5.234859	 0.342567	 0.430617	 1.503282	 22.568620	-6.067366	-0.623081	-23.546020	-0.426230	 92.816250	 62.751570	-172.467000	-12.676780	 24.892520	 22.847690	-14.915200	-4.005060	 35.927500	 4.576384	-35.688960	 12.681610	 1.803333	 3.979147	-15.098590	 4.898592	 3.004813	-9.310344	 5.224449	 0.395017	 2.014677
-0.016243	 0.166714	 1.256410	 3.704750	 24.668210	 0.326775	-0.908704	-40.798740	 176.835200	 3.826139	-22.576270	 1.631361	 4.620003	 67.837830	-7.211396	-2.385833	 28.452750	 0.000004	-1.553604	-39.897670	-179.458200	-2.430334	-21.967950	 1.016655	 0.396935	 68.183900	 8.751333	 2.384659	 28.388700	-0.000001	-15.250190	 11.391650	 0.108138	-0.647314	-1.824064	 0.728834	-0.197276	 10.402090	-0.610718	-94.487410	 70.339160	 169.833800	 7.133393	 19.528680	-35.823600	 14.758180	-0.232576	-15.132150	-13.129580	-39.647620	-16.959130	-2.027600	 6.559038	 9.033609	-5.188889	 0.308190	 3.541030	-5.234859	 0.342567	 0.430617	 1.097250	 21.523480	-5.974429	-1.503872	-23.558570	-0.704788	 93.069390	 64.242200	-171.308100	-13.012110	 26.356810	 26.205190	-13.763480	-3.337470	 37.572300	 7.249667	-37.184720	 14.349760	 1.803333	 3.979147	-15.098590	 4.898592	 3.004813	-9.310344	 5.224449	 0.395017	 2.014677
-0.018667	 0.186276	 1.248668	 3.648913	 26.405190	-0.349333	-0.321702	-44.650510	 177.646400	 4.210845	-23.895360	 1.877823	 4.991565	 67.078870	-7.901191	-2.385833	 28.452750	 0.000004	-0.429288	-44.543290	-178.408600	-3.627819	-24.580550	 0.631757	 1.645898	 67.691990	 8.982343	 2.384659	 28.388700	-0.000001	-15.349180	 11.918780	-0.489233	 0.197271	 1.770991	 1.416017	-1.534984	 9.459249	-0.685445	-94.966010	 69.906200	 168.492500	 5.124314	 17.162110	-35.919370	 13.633650	-0.127090	-20.278280	-14.788800	-41.209080	-18.124980	-2.027600	 6.559038	 9.033609	-5.188889	 0.308190	 3.541030	-5.234859	 0.342567	 0.430617	 0.240705	 22.413370	-4.413829	-2.984217	-25.428960	-2.311635	 93.478190	 65.056980	-169.848100	-12.671040	 25.921070	 29.247910	-12.303190	-2.365764	 39.587670	 10.036620	-38.223440	 16.219940	 1.803333	 3.979147	-15.098590	 4.898592	 3.004813	-9.310344	 5.224449	 0.395017	 2.014677
